# xmcd
#
# Track frame offsets:
# 150
# 14122
# 32970
# 46611
# 63077
# 72985
# 83549
# 98631
# 109205
# 121796
# 131452
# 146179
# 159477
# 175009
# 185344
# 199455
# 211175
# 221451
#
# Disc length: 3125 seconds
#
#
# Revision: 2
# Processed by: cddbd v1.5.2PL0 Copyright (c) Steve Scherf et al.
# Submitted via: FreeRIP 2.40 
#
DISCID=fa0c3312
DTITLE=Lowell Fulson - I've Got The Blues
DYEAR=2002
DGENRE=Blues
TTITLE0=Teach Me
TTITLE1=I've Got The Blues
TTITLE2=Every Second a Fool Is Born
TTITLE3=Don't Leave Me
TTITLE4=Change of Heart
TTITLE5=Fed Up
TTITLE6=Searchin' Out
TTITLE7=Cryin' Won't Help
TTITLE8=Too Soon
TTITLE9=Stoned to the Bone
TTITLE10=The Last One To Know
TTITLE11=How Do You Want You Man
TTITLE12=Thug
TTITLE13=Baby
TTITLE14=I Started Out Wrong
TTITLE15=You're Gonna Miss Me
TTITLE16=Please Don't Go
TTITLE17=Hurry Home
EXTD=YEAR: 2002  ID3G:   0
EXTT0=
EXTT1=
EXTT2=
EXTT3=
EXTT4=
EXTT5=
EXTT6=
EXTT7=
EXTT8=
EXTT9=
EXTT10=
EXTT11=
EXTT12=
EXTT13=
EXTT14=
EXTT15=
EXTT16=
EXTT17=
PLAYORDER=
